# xmcd CD database file
#
# Track frame offsets:
#	150
#	21921
#	48912
#	80670
#	110020
#	138045
#	173627
#	210411
#	251742
#	276168
#	321625
#
# Disc length: 4675 seconds
#
# Revision: 0
# Processed by: cddbd v1.5.2PL0 Copyright (c) Steve Scherf et al.
# Submitted via: CDex 1.50beta8
#
DISCID=9b12410b
DTITLE=Andrey Klimkovsky - Electro Dinamica - CD1
DYEAR=2006
DGENRE=New Age
TTITLE0=e1
TTITLE1=Robogiator
TTITLE2=e2
TTITLE3=On the Edge of Life
TTITLE4=Special Flight
TTITLE5=e3
TTITLE6=ElectriSEAti
TTITLE7=Earth - Venus - Mars
TTITLE8=e4
TTITLE9=CyberRelax
TTITLE10=e5
EXTD=YEAR: 2006
EXTT0=
EXTT1=
EXTT2=
EXTT3=
EXTT4=
EXTT5=
EXTT6=
EXTT7=
EXTT8=
EXTT9=
EXTT10=
PLAYORDER=
